<svg width="214px" height="35px" viewBox="0 0 160 27" version="1.1" xmlns="http://www.w3.org/2000/svg" xmlns:xlink="http://www.w3.org/1999/xlink" xml:space="preserve" style="fill-rule:evenodd;clip-rule:evenodd;stroke-linejoin:round;stroke-miterlimit:1.41421;"><path d="M104.821,22.265c0.297,0.397 0.446,0.905 0.446,1.525c0,0.67 -0.17,1.227 -0.511,1.671c-0.399,0.521 -0.968,0.782 -1.708,0.782c-0.69,0 -1.233,-0.228 -1.628,-0.684c-0.352,-0.44 -0.529,-0.996 -0.529,-1.668c0,-0.607 0.151,-1.127 0.453,-1.559c0.387,-0.554 0.959,-0.831 1.717,-0.831c0.792,0 1.379,0.255 1.76,0.764Zm-6.983,0.706l-0.592,0c-0.068,-0.289 -0.202,-0.519 -0.402,-0.688c-0.201,-0.169 -0.482,-0.253 -0.845,-0.253c-0.442,0 -0.799,0.155 -1.071,0.466c-0.272,0.31 -0.408,0.787 -0.408,1.428c0,0.526 0.123,0.952 0.368,1.279c0.246,0.327 0.612,0.49 1.099,0.49c0.448,0 0.789,-0.172 1.023,-0.516c0.125,-0.181 0.217,-0.42 0.278,-0.715l0.593,0c-0.053,0.472 -0.228,0.869 -0.525,1.188c-0.357,0.385 -0.838,0.578 -1.443,0.578c-0.521,0 -0.959,-0.158 -1.313,-0.474c-0.467,-0.417 -0.7,-1.062 -0.7,-1.934c0,-0.662 0.175,-1.205 0.525,-1.628c0.379,-0.461 0.902,-0.691 1.568,-0.691c0.568,0 1.009,0.15 1.323,0.449c0.314,0.3 0.488,0.64 0.522,1.021Zm43.522,0l-0.593,0c-0.067,-0.289 -0.201,-0.519 -0.401,-0.688c-0.201,-0.169 -0.483,-0.253 -0.845,-0.253c-0.442,0 -0.799,0.155 -1.071,0.466c-0.272,0.31 -0.408,0.787 -0.408,1.428c0,0.526 0.123,0.952 0.368,1.279c0.246,0.327 0.612,0.49 1.098,0.49c0.449,0 0.79,-0.172 1.024,-0.516c0.124,-0.181 0.217,-0.42 0.278,-0.715l0.593,0c-0.053,0.472 -0.228,0.869 -0.526,1.188c-0.356,0.385 -0.837,0.578 -1.442,0.578c-0.521,0 -0.959,-0.158 -1.314,-0.474c-0.466,-0.417 -0.699,-1.062 -0.699,-1.934c0,-0.662 0.175,-1.205 0.525,-1.628c0.379,-0.461 0.902,-0.691 1.568,-0.691c0.568,0 1.009,0.15 1.323,0.449c0.313,0.3 0.487,0.64 0.522,1.021Zm-32.301,3.141l-0.581,0l0,-4.489l0.871,0l1.29,3.795l1.28,-3.795l0.861,0l0,4.489l-0.577,0l0,-2.649c0,-0.092 0.002,-0.244 0.006,-0.455c0.004,-0.212 0.006,-0.439 0.006,-0.682l-1.28,3.786l-0.602,0l-1.289,-3.786l0,0.138c0,0.11 0.002,0.277 0.007,0.502c0.005,0.225 0.008,0.391 0.008,0.497l0,2.649Zm7.715,0l-0.58,0l0,-4.489l0.871,0l1.289,3.795l1.28,-3.795l0.862,0l0,4.489l-0.578,0l0,-2.649c0,-0.092 0.003,-0.244 0.007,-0.455c0.004,-0.212 0.006,-0.439 0.006,-0.682l-1.28,3.786l-0.602,0l-1.29,-3.786l0,0.138c0,0.11 0.003,0.277 0.008,0.502c0.005,0.225 0.007,0.391 0.007,0.497l0,2.649Zm10.527,0l-3.318,0l0,-4.489l3.272,0l0,0.55l-2.679,0l0,1.363l2.477,0l0,0.52l-2.477,0l0,1.521l2.725,0l0,0.535Zm3.982,0l-0.608,0l0,-4.489l2.077,0c0.343,0 0.625,0.05 0.847,0.15c0.421,0.192 0.632,0.545 0.632,1.06c0,0.269 -0.055,0.489 -0.166,0.66c-0.111,0.171 -0.267,0.309 -0.466,0.413c0.175,0.071 0.307,0.165 0.395,0.281c0.089,0.116 0.138,0.304 0.149,0.565l0.021,0.602c0.006,0.171 0.02,0.298 0.043,0.382c0.036,0.143 0.102,0.234 0.195,0.275l0,0.101l-0.745,0c-0.021,-0.039 -0.037,-0.089 -0.049,-0.15c-0.012,-0.061 -0.023,-0.179 -0.031,-0.354l-0.036,-0.749c-0.015,-0.293 -0.124,-0.49 -0.327,-0.59c-0.116,-0.055 -0.299,-0.082 -0.547,-0.082l-1.384,0l0,1.925Zm16.693,-3.939l-2.68,0l0,1.363l2.478,0l0,0.52l-2.478,0l0,1.521l2.725,0l0,0.535l-3.318,0l0,-4.489l3.273,0l0,0.55Zm-43.692,2.95c0.24,-0.384 0.359,-0.825 0.359,-1.324c0,-0.528 -0.138,-0.952 -0.414,-1.274c-0.276,-0.322 -0.653,-0.483 -1.132,-0.483c-0.464,0 -0.843,0.159 -1.136,0.478c-0.294,0.319 -0.44,0.789 -0.44,1.41c0,0.497 0.126,0.916 0.377,1.258c0.252,0.341 0.66,0.511 1.224,0.511c0.535,0 0.923,-0.192 1.162,-0.576Zm28.484,-2.977l-1.485,0l0,1.534l1.405,0c0.285,0 0.511,-0.057 0.677,-0.171c0.166,-0.114 0.249,-0.32 0.249,-0.618c0,-0.319 -0.116,-0.537 -0.348,-0.653c-0.125,-0.062 -0.291,-0.092 -0.498,-0.092Z" style="fill:#aaa;"/><g transform="matrix(0.409657,0,0,0.409657,-145.375,-56.2217)"><text x="353.634px" y="165.769px" style="font-family:'ArialMT', 'Arial', sans-serif;font-size:16px;fill:#5f5f5f;">D<tspan x="365.829px 377.141px 388.453px 399.764px 411.959px 423.271px 436.356px 444.707px 456.019px 461.104px 473.299px " y="165.769px 165.769px 165.769px 165.769px 165.769px 165.769px 165.769px 165.769px 165.769px 165.769px 165.769px ">ESENVOLVIDO</tspan></text><text x="491.47px" y="165.769px" style="font-family:'Helvetica';font-size:16px;fill:#5f5f5f;"><tspan x="491.47px 502.782px 515.867px 528.062px " y="165.769px 165.769px 165.769px 165.769px ">POR:</tspan></text></g><path d="M154.008,3.155c-1.91,0 -2.865,0.631 -2.865,1.892c0,0.561 0.236,0.991 0.71,1.289c0.473,0.297 1.581,0.727 3.325,1.288c1.744,0.561 2.966,1.196 3.667,1.906c0.701,0.709 1.052,1.8 1.052,3.273c0,1.875 -0.57,3.294 -1.709,4.258c-1.139,0.964 -2.629,1.446 -4.469,1.446c-1.367,0 -3.041,-0.21 -5.021,-0.631l-0.946,-0.184l0.368,-2.813c2.348,0.316 4.144,0.474 5.389,0.474c1.857,0 2.786,-0.772 2.786,-2.314c0,-0.561 -0.214,-0.999 -0.644,-1.314c-0.429,-0.316 -1.283,-0.658 -2.563,-1.026c-2.033,-0.578 -3.466,-1.266 -4.298,-2.063c-0.833,-0.798 -1.249,-1.906 -1.249,-3.326c0,-1.787 0.544,-3.119 1.63,-3.996c1.087,-0.876 2.576,-1.314 4.469,-1.314c1.297,0 2.945,0.175 4.942,0.526l0.947,0.184l-0.289,2.865c-2.471,-0.28 -4.215,-0.42 -5.232,-0.42Zm-67.64,11.829l6.546,0l0,0.637l3.443,-15.306l6.888,0l4.022,17.877l-3.628,0l-0.709,-3.234l-6.257,0l-0.71,3.234l-3.628,0l-9.624,0l0.029,-17.877l3.628,0l0,14.669Zm27.787,3.208l-3.628,0l0,-7.23l-5.521,-10.647l4.022,0l3.287,7.125l3.286,-7.125l4.022,0l-5.468,10.647l0,7.23Zm23.002,0l-3.628,0l0,-17.877l6.941,0c4.206,0 6.309,1.963 6.309,5.889c0,2.331 -0.876,4.049 -2.629,5.153l2.55,6.835l-3.97,0l-2.076,-5.994l-3.497,0l0,5.994Zm-36.725,-14.88l-1.262,0l-1.814,8.492l4.89,0l-1.814,-8.492Zm40.038,0.106l-3.313,0l0,5.678l3.365,0c0.859,0 1.499,-0.263 1.919,-0.789c0.421,-0.526 0.631,-1.218 0.631,-2.077c0,-0.858 -0.223,-1.542 -0.67,-2.05c-0.447,-0.508 -1.091,-0.762 -1.932,-0.762Z" style="fill:#2c3740;"/><path d="M120.646,15.112l11.527,0.04l0,3.079l-11.527,-0.039l0,-3.08Zm11.527,-4.506l-11.527,0l0,-2.873l11.527,0l0,2.873Zm0,-7.222l-11.527,-0.04l0,-3.029l11.527,0.04l0,3.029Z" style="fill:#76da00;"/></svg>