<svg width="50px" height="50px" viewBox="0 0 49 49" version="1.1" xmlns="http://www.w3.org/2000/svg" xmlns:xlink="http://www.w3.org/1999/xlink" xml:space="preserve" style="fill-rule:evenodd;clip-rule:evenodd;stroke-linejoin:round;stroke-miterlimit:1.41421;">
    <g transform="matrix(1,0,0,1,-611.268,-225.86)">
        <g>
            <g transform="matrix(1.04225,0,0,1.04225,383.705,-32.9712)">
                <circle cx="241.5" cy="271.5" r="21.5" style="fill:white;stroke-width:1.92px;stroke:black;"/>
            </g>
            <g transform="matrix(0.376226,0,0,0.376226,626.763,241.355)">
                <path d="M39.287,41.955L37.661,29.195C37.105,24.82 33.383,21.585 28.973,21.585L16.985,21.585C12.575,21.585 8.852,24.82 8.297,29.195L6.67,41.979C6.558,42.873 6.833,43.997 7.428,44.671C8.024,45.346 8.881,45.958 9.781,45.958L36.176,45.958C37.076,45.958 37.933,45.334 38.53,44.659C39.125,43.982 39.4,42.85 39.287,41.955ZM22.978,0C28.127,0 32.308,4.181 32.308,9.33C32.308,14.479 28.127,18.66 22.978,18.66C17.829,18.66 13.648,14.479 13.648,9.33C13.648,4.181 17.829,0 22.978,0Z" style="fill:black;"/>
            </g>
        </g>
    </g>
</svg>
