<svg width="100%" height="100%" viewBox="0 0 16 13" version="1.1" xmlns="http://www.w3.org/2000/svg" xmlns:xlink="http://www.w3.org/1999/xlink" xml:space="preserve" style="fill-rule:evenodd;clip-rule:evenodd;stroke-linejoin:round;stroke-miterlimit:1.41421;">
    <g transform="matrix(1,0,0,1,-740.472,-2847.33)">
        <g transform="matrix(0.508485,0,0,0.508485,590.137,2716.06)">
            <path d="M314.111,259.695C313.72,260.07 313.72,260.689 314.095,261.08L323.446,270.594L313.557,280.793C313.182,281.184 313.199,281.803 313.573,282.178C313.769,282.357 314.013,282.455 314.258,282.455C314.518,282.455 314.763,282.357 314.958,282.162L325.515,271.279C325.89,270.904 325.89,270.285 325.515,269.91L315.496,259.711C315.105,259.337 314.486,259.32 314.111,259.695ZM307.725,281.999C307.904,282.178 308.148,282.259 308.409,282.259L308.425,282.259C308.686,282.259 308.93,282.162 309.109,281.982L319.667,271.116C320.041,270.725 320.041,270.122 319.65,269.747L308.311,258.424C308.132,258.245 307.871,258.147 307.627,258.147L296.695,258.163C296.157,258.163 295.717,258.587 295.717,259.125L295.652,269.861C295.652,270.122 295.75,270.383 295.945,270.562L307.725,281.999ZM301.097,261.976C301.906,261.976 302.562,262.632 302.562,263.441C302.562,264.251 301.906,264.907 301.097,264.907C300.287,264.907 299.631,264.251 299.631,263.441C299.631,262.632 300.287,261.976 301.097,261.976Z" style="fill:black;"/>
        </g>
    </g>
</svg>
