<svg width="100%" height="100%" viewBox="0 0 56 22" version="1.1" xmlns="http://www.w3.org/2000/svg" xmlns:xlink="http://www.w3.org/1999/xlink" xml:space="preserve" style="fill-rule:evenodd;clip-rule:evenodd;stroke-linejoin:round;stroke-miterlimit:1.41421;">
    <g transform="matrix(1,0,0,1,-768,-2764.11)">
        <g>
            <g transform="matrix(1,0,0,1,-2,2.10773)">
                <rect x="770" y="2762" width="56" height="22" style="fill:white;"/>
            </g>
            <g transform="matrix(0.957884,0,0,0.957884,681.742,2591.65)">
                <path d="M126.524,189.13L122.154,188.717C121.879,188.692 121.641,188.517 121.528,188.254L119.963,184.46C119.713,183.834 118.824,183.834 118.574,184.46L117.021,188.254C116.921,188.517 116.67,188.692 116.395,188.717L112.025,189.13C111.374,189.193 111.111,190.006 111.6,190.445L114.893,193.337C115.105,193.525 115.193,193.8 115.13,194.076L114.141,198.132C113.991,198.771 114.68,199.296 115.256,198.959L118.899,196.817C119.137,196.68 119.425,196.68 119.663,196.817L123.306,198.959C123.882,199.296 124.571,198.783 124.421,198.132L123.444,194.076C123.381,193.8 123.469,193.525 123.682,193.337L126.975,190.445C127.451,190.006 127.175,189.193 126.524,189.13" style="fill:black;fill-rule:nonzero;"/>
            </g>
        </g>
    </g>
</svg>
