<svg width="100%" height="100%" viewBox="0 0 36 36" version="1.1" xmlns="http://www.w3.org/2000/svg" xmlns:xlink="http://www.w3.org/1999/xlink" xml:space="preserve" style="fill-rule:evenodd;clip-rule:evenodd;stroke-linejoin:round;stroke-miterlimit:1.41421;">
    <g transform="matrix(1,0,0,1,-611.877,-4092.87)">
        <g transform="matrix(1,0,0,1,0,116.766)">
            <g transform="matrix(1.51293,0,0,1.51293,-1037.19,-1485.81)">
                <circle cx="1101.58" cy="3621.75" r="10.451" style="fill:white;stroke-width:1.32px;stroke:black;"/>
            </g>
            <g transform="matrix(0.0227543,0,0,0.0227543,622.842,3987.07)">
                <path d="M577.83,456.128C579.055,465.513 576.195,473.673 569.262,480.608L487.866,561.389C484.194,565.469 479.401,568.94 473.485,571.793C467.569,574.65 461.756,576.486 456.046,577.301C455.638,577.301 454.411,577.406 452.37,577.61C450.333,577.813 447.681,577.917 444.417,577.917C436.663,577.917 424.116,576.591 406.776,573.938C389.436,571.285 368.221,564.756 343.131,554.354C318.035,543.95 289.578,528.342 257.755,507.536C225.932,486.731 192.067,458.169 156.163,421.856C127.603,393.704 103.939,366.776 85.171,341.073C66.403,315.368 51.307,291.602 39.883,269.774C28.458,247.946 19.89,228.158 14.178,210.41C8.466,192.662 4.59,177.362 2.55,164.51C0.51,151.658 -0.306,141.56 0.102,134.216C0.51,126.872 0.714,122.792 0.714,121.976C1.53,116.264 3.366,110.45 6.222,104.534C9.078,98.618 12.546,93.824 16.626,90.152L98.022,8.756C103.734,3.044 110.262,0.188 117.606,0.188C122.91,0.188 127.602,1.718 131.682,4.778C135.762,7.838 139.23,11.612 142.086,16.1L207.57,140.336C211.242,146.864 212.262,154.004 210.63,161.756C208.998,169.508 205.53,176.036 200.226,181.34L170.238,211.328C169.422,212.144 168.708,213.47 168.096,215.306C167.484,217.142 167.178,218.672 167.178,219.896C168.81,228.464 172.482,238.256 178.194,249.272C183.09,259.064 190.638,270.998 200.838,285.074C211.038,299.15 225.522,315.367 244.29,333.727C262.65,352.497 278.97,367.081 293.25,377.487C307.527,387.887 319.465,395.54 329.053,400.436C338.641,405.332 345.985,408.29 351.084,409.307L358.732,410.838C359.548,410.838 360.877,410.531 362.711,409.92C364.547,409.307 365.873,408.594 366.69,407.777L401.573,372.281C408.921,365.754 417.485,362.49 427.278,362.49C434.216,362.49 439.721,363.713 443.801,366.162L444.412,366.162L562.527,435.93C571.098,441.238 576.197,447.968 577.83,456.128Z" style="fill:rgb(1,0,2);fill-rule:nonzero;"/>
            </g>
        </g>
    </g>
</svg>
