<svg width="100%" height="100%" viewBox="0 0 36 36" version="1.1" xmlns="http://www.w3.org/2000/svg" xmlns:xlink="http://www.w3.org/1999/xlink" xml:space="preserve" style="fill-rule:evenodd;clip-rule:evenodd;stroke-linejoin:round;stroke-miterlimit:1.41421;">
    <g transform="matrix(1,0,0,1,-611.877,-3976.11)">
        <g>
            <g transform="matrix(1.51293,0,0,1.51293,-1037.19,-1485.81)">
                <circle cx="1101.58" cy="3621.75" r="10.451" style="fill:white;stroke-width:1.32px;stroke:black;"/>
            </g>
            <g transform="matrix(1.17214,0,0,1.17214,75.476,-190.577)">
                <path d="M477.109,3569.63L473.561,3569.63C473.432,3569.42 473.254,3569.24 473.044,3569.12L473.044,3564.85C473.044,3564.4 472.68,3564.04 472.231,3564.04C471.782,3564.04 471.418,3564.4 471.418,3564.85L471.418,3569.12C470.971,3569.39 470.672,3569.88 470.672,3570.45C470.672,3571.31 471.372,3572 472.231,3572C472.793,3572 473.286,3571.7 473.561,3571.26L477.109,3571.26C477.558,3571.26 477.922,3570.89 477.922,3570.45C477.922,3570 477.558,3569.63 477.109,3569.63Z" style="fill:black;"/>
            </g>
        </g>
    </g>
</svg>
