<svg width="100%" height="100%" viewBox="0 0 36 36" version="1.1" xmlns="http://www.w3.org/2000/svg" xmlns:xlink="http://www.w3.org/1999/xlink" xml:space="preserve" style="fill-rule:evenodd;clip-rule:evenodd;stroke-linejoin:round;stroke-miterlimit:1.41421;">
    <g transform="matrix(1,0,0,1,-611.877,-4015.15)">
        <g>
            <g transform="matrix(1.51293,0,0,1.51293,-1037.19,-1446.77)">
                <circle cx="1101.58" cy="3621.75" r="10.451" style="fill:white;stroke-width:1.32px;stroke:black;"/>
            </g>
            <g id="Skype_2_" transform="matrix(0.0278097,0,0,0.0278097,622.771,4026.04)">
                <path d="M458.142,273.67C459.995,262.433 460.911,250.818 460.911,239.083C460.911,116.533 361.532,17.254 239.063,17.254C227.348,17.254 215.733,18.21 204.476,20.023C183.994,7.272 159.906,0 134.045,0C60.01,0 0,60.01 0,134.045C0,159.906 7.292,183.973 20.023,204.475C18.21,215.792 17.254,227.228 17.254,239.082C17.254,361.532 116.533,460.891 239.063,460.891C250.798,460.891 262.393,459.994 273.67,458.142C294.171,470.754 318.358,478.165 344.1,478.165C418.275,478.165 478.165,418.275 478.165,344.1C478.165,318.358 470.773,294.191 458.142,273.67ZM344.498,339.955C334.915,353.503 321.227,364.142 303.157,371.673C285.226,379.224 263.808,382.97 239.103,382.97C209.636,382.97 185.15,377.83 165.784,367.47C152.176,359.999 141.039,349.878 132.552,337.505C123.905,324.973 119.562,312.76 119.562,300.686C119.562,293.673 122.292,287.616 127.472,282.516C132.792,277.455 139.586,274.965 147.714,274.965C154.289,274.965 159.907,276.918 164.529,280.962C169.012,284.807 172.817,290.466 176.005,297.977C179.751,306.743 183.895,314.135 188.158,319.893C192.541,325.531 198.618,330.472 206.428,334.238C214.258,337.984 224.578,339.876 237.588,339.876C255.3,339.876 269.745,336.091 280.563,328.579C291.481,320.789 296.841,311.505 296.841,300.248C296.841,291.362 294.012,284.289 288.075,278.711C282.098,273.093 274.507,268.889 265.163,265.761C255.699,262.832 242.829,259.625 226.87,256.277C205.432,251.675 187.481,246.116 172.957,239.84C158.333,233.544 146.817,225.057 138.19,214.139C129.563,203.181 125.319,189.593 125.319,173.475C125.319,158.074 129.802,144.287 138.927,132.353C148.012,120.419 161.102,111.134 178.276,104.659C195.231,98.303 215.413,95.076 238.345,95.076C256.754,95.076 272.653,97.188 286.161,101.511C299.649,105.775 310.846,111.373 319.772,118.406C328.638,125.539 335.173,132.89 339.357,140.76C343.561,148.53 345.513,156.201 345.513,163.632C345.513,170.486 342.784,176.921 337.583,182.34C332.423,187.919 325.788,190.708 317.918,190.708C310.905,190.708 305.366,189.054 301.561,185.568C297.596,182.301 293.771,176.961 289.527,169.51C284.048,159.229 277.812,151.28 270.341,145.482C262.949,139.864 250.896,136.875 234.359,136.875C218.819,136.875 206.466,140.083 197.122,146.339C187.738,152.535 183.275,159.887 183.275,168.335C183.275,173.714 184.749,178.177 187.937,182.062C191.025,186.027 195.448,189.294 201.027,192.143C206.645,195.132 212.423,197.263 218.101,198.877C223.919,200.531 233.502,202.902 247.01,206.089C263.806,209.675 278.908,213.799 292.754,218.083C306.382,222.526 318.057,227.885 327.76,234.341C337.283,240.537 345.034,248.686 350.294,258.588C355.853,268.131 358.602,280.185 358.602,294.211C358.584,311.106 353.862,326.447 344.498,339.955Z" style="fill:black;fill-rule:nonzero;"/>
            </g>
        </g>
    </g>
</svg>
