<svg width="100%" height="100%" viewBox="0 0 56 22" version="1.1" xmlns="http://www.w3.org/2000/svg" xmlns:xlink="http://www.w3.org/1999/xlink" xml:space="preserve" style="fill-rule:evenodd;clip-rule:evenodd;stroke-linejoin:round;stroke-miterlimit:1.41421;">
    <g transform="matrix(1,0,0,1,-768,-2817.46)">
        <g>
            <g transform="matrix(1,0,0,1,-2,55.4593)">
                <rect x="770" y="2762" width="56" height="22" style="fill:white;"/>
            </g>
            <g transform="matrix(0.271343,0,0,0.271343,587.352,2800.53)">
                <path d="M762.977,73.05C763.86,72.814 766.437,75.101 765.084,77.567C760.308,86.274 760.539,93.66 765.084,100.311C771.555,109.781 774.294,114.267 774.859,121.587C775.652,131.867 769.503,133.728 761.396,132.481C748.981,128.434 740,116.758 740,103C740,88.665 749.752,76.589 762.977,73.05Z" style="fill:black;"/>
            </g>
            <g transform="matrix(0.271343,0,0,0.271343,586.237,2800.53)">
                <path d="M779.875,74.022C779.875,74.022 782.476,74.173 783.538,74.644C794.409,79.462 802,90.352 802,103C802,116.11 793.845,127.33 782.335,131.859C780.403,131.575 780.88,129.61 782.679,126.723C787.565,118.881 783.227,111.004 777.791,103.979C770.963,95.154 768.691,88.477 771.926,79.768C773.355,75.923 775.66,73.833 779.875,74.022Z" style="fill:black;"/>
            </g>
        </g>
    </g>
</svg>
