<?xml version="1.0" encoding="UTF-8" standalone="no"?><!DOCTYPE svg PUBLIC "-//W3C//DTD SVG 1.1//EN" "http://www.w3.org/Graphics/SVG/1.1/DTD/svg11.dtd"><svg width="100%" height="100%" viewBox="0 0 180 180" version="1.1" xmlns="http://www.w3.org/2000/svg" xmlns:xlink="http://www.w3.org/1999/xlink" xml:space="preserve" style="fill-rule:evenodd;clip-rule:evenodd;stroke-linejoin:round;stroke-miterlimit:1.41421;"><g><rect x="0" y="0" width="180" height="180" style="fill:#fff;fill-opacity:0.0273922;"/><path d="M90,64.807c-0.533,0 -0.953,0.419 -0.953,0.953l0,9.526c0,0.534 0.42,0.953 0.953,0.953c0.533,0 0.953,-0.419 0.953,-0.953l0,-9.526c0,-0.534 -0.42,-0.953 -0.953,-0.953Z" style="fill:#d9d9d9;fill-rule:nonzero;"/><path d="M90,108.629c-0.533,0 -0.953,0.419 -0.953,0.953l0,9.526c0,0.534 0.42,0.953 0.953,0.953c0.533,0 0.953,-0.419 0.953,-0.953l0,-9.526c0,-0.534 -0.42,-0.953 -0.953,-0.953Z" style="fill:#d9d9d9;fill-rule:nonzero;"/><path d="M116.674,91.481l-9.526,0c-0.534,0 -0.953,0.42 -0.953,0.953c0,0.534 0.419,0.953 0.953,0.953l9.526,0c0.534,0 0.953,-0.419 0.953,-0.953c0,-0.533 -0.419,-0.953 -0.953,-0.953Z" style="fill:#d9d9d9;fill-rule:nonzero;"/><path d="M73.805,92.434c0,-0.533 -0.419,-0.953 -0.953,-0.953l-9.526,0c-0.534,0 -0.953,0.42 -0.953,0.953c0,0.534 0.419,0.953 0.953,0.953l9.526,0c0.534,0 0.953,-0.419 0.953,-0.953Z" style="fill:#d9d9d9;fill-rule:nonzero;"/><path d="M102.804,103.885c-0.381,-0.381 -0.972,-0.381 -1.353,0c-0.381,0.381 -0.381,0.972 0,1.353l6.745,6.744c0.19,0.191 0.438,0.286 0.666,0.286c0.229,0 0.496,-0.095 0.667,-0.286c0.381,-0.381 0.381,-0.971 0,-1.352l-6.725,-6.745Z" style="fill:#d9d9d9;fill-rule:nonzero;"/><path d="M71.804,72.905c-0.381,-0.381 -0.971,-0.381 -1.352,0c-0.381,0.381 -0.381,0.972 0,1.353l6.744,6.744c0.191,0.191 0.439,0.286 0.667,0.286c0.229,0 0.496,-0.095 0.667,-0.286c0.381,-0.381 0.381,-0.971 0,-1.352l-6.726,-6.745Z" style="fill:#d9d9d9;fill-rule:nonzero;"/><path d="M77.196,103.885l-6.744,6.745c-0.381,0.381 -0.381,0.971 0,1.352c0.19,0.191 0.438,0.286 0.667,0.286c0.228,0 0.495,-0.095 0.666,-0.286l6.745,-6.744c0.381,-0.381 0.381,-0.972 0,-1.353c-0.362,-0.362 -0.953,-0.362 -1.334,0Z" style="fill:#d9d9d9;fill-rule:nonzero;"/><path d="M102.118,81.269c0.247,0 0.495,-0.095 0.667,-0.286l6.744,-6.744c0.381,-0.382 0.381,-0.972 0,-1.353c-0.381,-0.381 -0.971,-0.381 -1.352,0l-6.745,6.744c-0.381,0.382 -0.381,0.972 0,1.353c0.209,0.191 0.457,0.286 0.686,0.286Z" style="fill:#d9d9d9;fill-rule:nonzero;"/></g></svg>