<?xml version="1.0" encoding="UTF-8" standalone="no"?><!DOCTYPE svg PUBLIC "-//W3C//DTD SVG 1.1//EN" "http://www.w3.org/Graphics/SVG/1.1/DTD/svg11.dtd"><svg width="100%" height="100%" viewBox="0 0 155 55" version="1.1" xmlns="http://www.w3.org/2000/svg" xmlns:xlink="http://www.w3.org/1999/xlink" xml:space="preserve" style="fill-rule:evenodd;clip-rule:evenodd;stroke-linejoin:round;stroke-miterlimit:1.41421;"><path d="M127.953,7.15c-11.442,0 -20.715,9.351 -20.715,20.89c0,11.538 9.273,20.89 20.715,20.89c11.442,0 20.716,-9.352 20.716,-20.89c0,-11.539 -9.274,-20.89 -20.716,-20.89l0,0Zm0,39.229c-10.045,0 -18.186,-8.209 -18.186,-18.339c0,-10.13 8.141,-18.34 18.186,-18.34c10.046,0 18.187,8.21 18.187,18.34c0,10.13 -8.141,18.339 -18.187,18.339l0,0Z" style="fill:#8d8d8d;fill-rule:nonzero;"/><path d="M134.4,26.735l-1.269,0l0.003,-3.771c0,-2.243 -2.31,-4.063 -5.17,-4.063c-2.854,0 -5.17,1.817 -5.17,4.063l-0.025,3.771l-1.296,0c-0.714,0 -1.263,0.582 -1.263,1.142l-0.028,8.159c0,0.56 0.605,1.143 1.319,1.143l12.927,0c0.711,0 1.261,-0.583 1.261,-1.143l0.027,-8.159c0.006,-0.562 -0.602,-1.142 -1.316,-1.142l0,0Zm-9.037,-3.917c0,-1.12 1.18,-1.887 2.604,-1.887c1.425,0 2.577,0.767 2.577,1.887l-0.017,3.917l-5.161,0l0,-3.917l-0.003,0l0,0Z" style="fill:#8d8d8d;fill-rule:nonzero;"/><g transform="matrix(1.05264,0,0,1.0615,-799.119,-394.932)"><text x="777.031px" y="395.646px" style="font-family:'Arial-BoldMT', 'Arial', sans-serif;font-weight:700;font-size:12px;fill:#8d8d8d;">SEUS DADOS</text><text x="762.341px" y="408.038px" style="font-family:'Arial-BoldMT', 'Arial', sans-serif;font-weight:700;font-size:12px;fill:#8d8d8d;">100% SEGUROS</text></g></svg>